HIERARCHY
ROOT Hips
{
	OFFSET -3.958830 18.904000 13.208200
	CHANNELS 6 Xposition Yposition Zposition Zrotation Yrotation Xrotation 
	JOINT LHipJoint
	{
		OFFSET 0.000000 0.000000 0.000000
		CHANNELS 3 Zrotation Yrotation Xrotation
		JOINT LeftUpLeg
		{
			OFFSET 1.800000 -1.400000 0.085000
			CHANNELS 3 Zrotation Yrotation Xrotation
			JOINT LeftLeg
			{
				OFFSET 2.215000 -6.000000 0.000000
				CHANNELS 3 Zrotation Yrotation Xrotation
				JOINT LeftFoot
				{
					OFFSET 2.500000 -6.900000 0.000000
					CHANNELS 3 Zrotation Yrotation Xrotation
					JOINT LeftToeBase
					{
						OFFSET 0.200000 -0.500000 1.950000
						CHANNELS 3 Zrotation Yrotation Xrotation
						End Site
						{
							OFFSET 0.000000 0.000000 0.000000
						}
					}
				}
			}
		}
	}
	JOINT RHipJoint
	{
		OFFSET 0.000000 0.000000 0.000000
		CHANNELS 3 Zrotation Yrotation Xrotation
		JOINT RightUpLeg
		{
			OFFSET -1.800000 -1.400000 0.085000
			CHANNELS 3 Zrotation Yrotation Xrotation
			JOINT RightLeg
			{
				OFFSET -2.215000 -6.000000 0.000000
				CHANNELS 3 Zrotation Yrotation Xrotation
				JOINT RightFoot
				{
					OFFSET -2.500000 -6.900000 0.000000
					CHANNELS 3 Zrotation Yrotation Xrotation
					JOINT RightToeBase
					{
						OFFSET -0.200000 -0.500000 1.950000
						CHANNELS 3 Zrotation Yrotation Xrotation
						End Site
						{
							OFFSET 0.000000 0.000000 0.000000
						}
					}
				}
			}
		}
	}
	JOINT LowerBack
	{
		OFFSET 0.000000 0.000000 0.000000
		CHANNELS 3 Zrotation Yrotation Xrotation
		JOINT Spine
		{
			OFFSET -0.087000 1.940000 -0.288900
			CHANNELS 3 Zrotation Yrotation Xrotation
			JOINT Spine1
			{
				OFFSET 0.000000 1.950000 0.060000
				CHANNELS 3 Zrotation Yrotation Xrotation
				JOINT Neck
				{
					OFFSET 0.000000 0.000000 0.000000
					CHANNELS 3 Zrotation Yrotation Xrotation
					JOINT Neck1
					{
						OFFSET 0.000000 1.600000 0.340000
						CHANNELS 3 Zrotation Yrotation Xrotation
						JOINT Head
						{
							OFFSET 0.000000 1.667000 -0.240000
							CHANNELS 3 Zrotation Yrotation Xrotation
							End Site
							{
								OFFSET 0.000000 0.000000 0.000000
							}
						}
					}
				}
				JOINT LeftShoulder
				{
					OFFSET 0.000000 0.000000 0.000000
					CHANNELS 3 Zrotation Yrotation Xrotation
					JOINT LeftArm
					{
						OFFSET 2.700000 1.550000 -0.730000
						CHANNELS 3 Zrotation Yrotation Xrotation
						JOINT LeftForeArm
						{
							OFFSET 5.450000 0.000000 0.000000
							CHANNELS 3 Zrotation Yrotation Xrotation
							JOINT LeftHand
							{
								OFFSET 3.450000 0.000000 0.000000
								CHANNELS 3 Zrotation Yrotation Xrotation
								JOINT LeftHandIndex1
								{
									OFFSET 0.750000 0.000000 0.000000
									CHANNELS 3 Zrotation Yrotation Xrotation
									End Site
									{
										OFFSET 0.000000 0.000000 0.000000
									}
								}
							}
						}
					}
				}
				JOINT RightShoulder
				{
					OFFSET 0.000000 0.000000 0.000000
					CHANNELS 3 Zrotation Yrotation Xrotation
					JOINT RightArm
					{
						OFFSET -2.700000 1.550000 -0.730000
						CHANNELS 3 Zrotation Yrotation Xrotation
						JOINT RightForeArm
						{
							OFFSET -5.450000 0.000000 0.000000
							CHANNELS 3 Zrotation Yrotation Xrotation
							JOINT RightHand
							{
								OFFSET -3.450000 0.000000 0.000000
								CHANNELS 3 Zrotation Yrotation Xrotation
								JOINT RightHandIndex1
								{
									OFFSET -0.750000 0.000000 0.000000
									CHANNELS 3 Zrotation Yrotation Xrotation
									End Site
									{
										OFFSET 0.000000 0.000000 0.000000
									}
								}
							}
						}
					}
				}
			}
		}
	}
}
MOTION
Frames: 9
Frame Time: 0.016667
0.178420 16.884490 -5.058650 -0.536245 17.639189 -7.890348 -14.653089 13.152431 3.239290 0.067489 -0.324535 -1.961281 -9.260924 6.213994 11.455906 0.609797 3.777440 3.245678 0.592330 0.418000 0.657070 18.616445 -11.964258 2.459812 -4.073515 0.919621 -13.766649 1.992726 -6.981065 33.350202 -0.796356 -4.707314 2.454682 -0.139310 -0.475420 0.354440 -5.379254 0.235428 -7.683999 31.148996 -12.427662 20.216832 -32.664958 -3.458954 7.584431 11.261429 1.734672 -16.493386 -3.228748 -5.444861 55.232001 1.488150 -10.520050 -14.085330 -27.214358 -18.227278 7.212230 -36.723899 -3.231018 -4.323510 -8.977931 -14.835549 0.330576 -2.808893 3.413276 0.392780 -0.460420 0.594660 0.089400 2.239367 18.839707 13.024033 7.052129 -10.270853 -8.770586 -152.388544 59.477565 -145.980432 2.511558 -2.458182 0.471680 -0.309600 -0.471450 0.091130 
0.182640 16.883620 -5.061730 -0.498474 17.761304 -7.989880 -14.656049 13.150436 3.245071 0.067571 -0.306853 -1.830954 -9.364185 6.238247 11.402190 0.618552 3.789129 3.241934 0.597400 0.425060 0.658970 18.614231 -11.963635 2.453127 -4.126940 0.928749 -13.836013 1.925999 -7.009510 33.638426 -0.805723 -4.740410 2.443331 -0.138280 -0.479270 0.355680 -5.376596 0.232433 -7.686787 31.220208 -12.570128 20.317832 -32.776945 -3.525077 7.570034 11.329070 1.768627 -16.523964 -3.214833 -5.502473 55.376565 1.468430 -10.585380 -14.184260 -27.169243 -18.235301 7.230830 -36.649938 -3.211217 -4.343889 -9.065629 -14.907845 0.345842 -2.800405 3.418242 0.393600 -0.463240 0.599240 0.092310 2.050002 18.833370 13.022030 6.700477 -10.522910 -8.789234 -151.439100 59.734164 -144.584579 2.515031 -2.469408 0.476110 -0.311080 -0.475890 0.092990 
0.191510 16.881060 -5.068250 -0.459390 17.999207 -8.167162 -14.660119 13.141899 3.250837 0.058791 -0.275844 -1.608326 -9.501895 6.271655 11.319492 0.637586 3.801764 3.238667 0.606190 0.438920 0.663300 18.612515 -11.964351 2.443574 -4.199975 0.958958 -14.025277 1.803301 -7.069762 34.239573 -0.823762 -4.807806 2.419553 -0.136260 -0.487280 0.356330 -5.377163 0.241140 -7.689449 31.438158 -12.872473 20.466875 -33.054346 -3.662781 7.556859 11.460136 1.834194 -16.561209 -3.176679 -5.649753 55.549018 1.444710 -10.733840 -14.354590 -27.069081 -18.231410 7.261780 -36.509019 -3.179830 -4.376093 -9.173048 -14.978492 0.371083 -2.784629 3.427253 0.391520 -0.469210 0.608030 0.098040 1.664677 18.794444 13.009085 6.029483 -10.970407 -8.798384 -149.738399 60.245336 -142.171215 2.524482 -2.491757 0.485310 -0.313790 -0.486250 0.097910 
0.202490 16.877980 -5.076880 -0.426437 18.301638 -8.447411 -14.667346 13.135444 3.259982 0.102912 -0.227526 -1.266522 -9.713268 6.325559 11.186228 0.665841 3.823942 3.230221 0.618510 0.457960 0.671680 18.607542 -11.961318 2.433846 -4.269671 1.007208 -14.250945 1.634958 -7.148034 35.055511 -0.850195 -4.899546 2.385596 -0.134510 -0.502320 0.358350 -5.370900 0.240320 -7.697883 31.677863 -13.275590 20.726965 -33.367577 -3.836635 7.537455 11.645354 1.980553 -16.660027 -3.018946 -5.907961 55.871590 1.311960 -10.909310 -14.591600 -26.960720 -18.275185 7.335232 -36.350655 -3.085210 -4.459239 -9.279207 -15.155554 0.402534 -2.760790 3.443216 0.389010 -0.479150 0.622260 0.103480 1.149986 18.777317 13.032453 5.166044 -11.593052 -8.795830 -147.019175 61.068432 -138.555612 2.541784 -2.517004 0.500010 -0.320100 -0.499980 0.103520 
0.216750 16.875490 -5.087550 -0.433185 18.660995 -8.821445 -14.675493 13.125453 3.268265 0.190432 -0.161992 -0.813689 -9.936589 6.377441 10.975464 0.696017 3.852021 3.220065 0.632120 0.478820 0.681390 18.602893 -11.955858 2.425202 -4.328033 1.079220 -14.521997 1.440289 -7.254387 36.079827 -0.884877 -5.020887 2.340767 -0.131950 -0.519300 0.362280 -5.365308 0.243095 -7.708566 32.027591 -13.784275 21.025972 -33.756530 -4.048730 7.544652 11.862812 2.212331 -16.813227 -2.723399 -6.252341 56.329627 1.078050 -11.100700 -14.829200 -26.867940 -18.388387 7.452509 -36.138443 -2.927368 -4.559018 -9.411923 -15.330786 0.434014 -2.732887 3.459247 0.388660 -0.489620 0.640370 0.110010 0.568940 18.776526 13.095538 4.158069 -12.303510 -8.725212 -143.475699 62.201053 -134.221927 2.563144 -2.535424 0.515310 -0.326520 -0.515340 0.109200 
0.232810 16.871890 -5.098240 -0.400747 19.069466 -9.199301 -14.683565 13.106856 3.277484 0.226901 -0.083223 -0.303622 -10.148624 6.418070 10.706091 0.728598 3.877596 3.210985 0.649320 0.501960 0.697110 18.599646 -11.950861 2.416377 -4.465002 1.171173 -14.880239 1.277852 -7.400384 37.235586 -0.925521 -5.165592 2.286749 -0.129960 -0.538340 0.370120 -5.363288 0.258874 -7.722987 32.366116 -14.300131 21.282079 -34.167069 -4.258430 7.607774 12.075725 2.560436 -16.984896 -2.180982 -6.742130 56.785799 0.727560 -11.266630 -15.062100 -26.767789 -18.507904 7.575708 -35.909183 -2.749811 -4.662173 -9.558415 -15.468474 0.462223 -2.705363 3.476740 0.388150 -0.499530 0.661400 0.116450 -0.026677 18.685814 13.230656 3.133416 -12.938345 -8.468403 -138.518812 63.471715 -128.449796 2.597597 -2.519882 0.533980 -0.335360 -0.533240 0.114330 
0.250110 16.866720 -5.108630 -0.342072 19.492069 -9.568555 -14.692144 13.083939 3.287771 0.243622 0.013968 0.262595 -10.375199 6.455811 10.371778 0.764023 3.902860 3.201200 0.668510 0.528480 0.715790 18.597420 -11.941497 2.407714 -4.643704 1.276737 -15.314183 1.116264 -7.562940 38.474391 -0.970520 -5.324415 2.225971 -0.127440 -0.559700 0.379460 -5.361525 0.270461 -7.739901 32.649872 -14.836770 21.458519 -34.563528 -4.485209 7.798944 12.294199 2.982841 -17.208501 -1.489107 -7.310481 57.230230 0.244930 -11.376560 -15.259680 -26.608329 -18.600824 7.672808 -35.721753 -2.575230 -4.786092 -9.656090 -15.614042 0.482535 -2.677979 3.496285 0.386420 -0.509670 0.684890 0.122620 -0.703638 18.503008 13.523978 2.177881 -13.339395 -7.919758 -131.463879 64.499580 -120.313779 2.651600 -2.401228 0.555260 -0.345820 -0.552650 0.119760 
0.268030 16.860040 -5.118280 -0.213388 19.889276 -9.925055 -14.702108 13.061961 3.305315 0.212067 0.134948 0.903554 -10.649422 6.498111 9.962983 0.801055 3.935120 3.188213 0.690580 0.557600 0.736090 18.594435 -11.923746 2.397816 -4.912012 1.394621 -15.794561 0.968243 -7.735884 39.756495 -1.016998 -5.494968 2.160453 -0.122680 -0.582590 0.389690 -5.355064 0.256152 -7.761809 32.772398 -15.386340 21.632815 -34.877709 -4.730792 8.125650 12.528633 3.379728 -17.492523 -0.877117 -7.862972 57.614531 -0.292170 -11.491750 -15.399250 -26.397928 -18.587560 7.664034 -35.563256 -2.480455 -4.908880 -9.733325 -15.731065 0.494349 -2.652169 3.517384 0.383800 -0.519370 0.708130 0.129130 -1.464860 18.267369 14.017241 1.333301 -13.439323 -7.025082 -122.087003 64.908811 -108.863454 2.720555 -1.965010 0.577540 -0.358200 -0.573030 0.124490 
0.285940 16.852050 -5.127290 -0.050788 20.281483 -10.325810 -14.710537 13.042999 3.330598 0.149770 0.282998 1.640781 -10.906514 6.536401 9.510252 0.844790 3.964894 3.175091 0.713180 0.593010 0.755380 18.591284 -11.904160 2.391836 -5.234602 1.515860 -16.251131 0.832739 -7.915717 41.074256 -1.068166 -5.674523 2.088588 -0.115700 -0.608950 0.398300 -5.352003 0.222042 -7.794634 32.762426 -15.968833 21.888329 -35.079091 -4.972502 8.422435 12.769975 3.696631 -17.789569 -0.391701 -8.367730 58.070384 -0.752550 -11.636190 -15.604630 -26.154420 -18.543751 7.698143 -35.508595 -2.400244 -5.044146 -9.767486 -15.881169 0.503475 -2.620628 3.539480 0.379830 -0.532810 0.736120 0.136000 -2.289773 18.307172 14.245640 0.583069 -13.563725 -6.508940 -112.024229 65.482523 -93.377121 2.693784 -0.711103 0.602250 -0.370910 -0.596350 0.132720 
